<svg id="Component_6_1" data-name="Component 6 – 1" xmlns="http://www.w3.org/2000/svg" width="54.493" height="38.042" viewBox="0 0 54.493 38.042">
  <path id="Path_945" data-name="Path 945" d="M994.64,100.989c-3.242-.147-6.782-.147-10.032,0-10.745.508-22.231,2.734-22.231,7.474v.152a27.311,27.311,0,0,0,13.614,23.5v5.542a1.268,1.268,0,0,0,1.265,1.265h25.656a1.268,1.268,0,0,0,1.265-1.265v-6.1a27.083,27.083,0,0,0,12.693-22.938v-.152C1016.87,103.723,1005.385,101.5,994.64,100.989Zm-5.018,12.4c-15.247,0-24.58-3.189-24.58-4.925s9.333-4.924,24.584-4.924,24.58,3.189,24.58,4.924S1004.873,113.388,989.622,113.388ZM977.064,129.65A24.429,24.429,0,0,1,965.3,112.135c4.367,2.386,13.765,3.913,24.33,3.913s19.954-1.527,24.322-3.913a24.5,24.5,0,0,1-11.2,17.224l-1.1.762v6.27H978.521v-5.9Z" transform="translate(-962.377 -100.879)" fill="#255744"/>
</svg>
